<svg width="15" height="8" viewBox="0 0 15 8" fill="none" xmlns="http://www.w3.org/2000/svg">
<path d="M1.46597 3.28548C1.676 2.18282 2.71115 1.42521 3.83631 1.42521H6.03413C6.42418 1.42521 6.74673 1.10266 6.74673 0.712603C6.74673 0.322547 6.42418 0 6.03413 0H3.91132C1.95354 0 0.205783 1.43271 0.0182562 3.38299C-0.199275 5.61831 1.55598 7.50109 3.7463 7.50109H6.03413C6.42418 7.50109 6.74673 7.17854 6.74673 6.78848C6.74673 6.39843 6.42418 6.07588 6.03413 6.07588H3.7463C2.31359 6.07588 1.18092 4.77069 1.46597 3.28548ZM5.24651 4.50065H9.74717C10.1597 4.50065 10.4973 4.1631 10.4973 3.75054C10.4973 3.33798 10.1597 3.00043 9.74717 3.00043H5.24651C4.83395 3.00043 4.49641 3.33798 4.49641 3.75054C4.49641 4.1631 4.83395 4.50065 5.24651 4.50065ZM11.0824 0H8.95955C8.5695 0 8.24695 0.322547 8.24695 0.712603C8.24695 1.10266 8.5695 1.42521 8.95955 1.42521H11.1574C12.2825 1.42521 13.3177 2.18282 13.5277 3.28548C13.8128 4.77069 12.6801 6.07588 11.2474 6.07588H8.95955C8.5695 6.07588 8.24695 6.39843 8.24695 6.78848C8.24695 7.17854 8.5695 7.50109 8.95955 7.50109H11.2474C13.4377 7.50109 15.193 5.61831 14.9829 3.38299C14.7954 1.43271 13.0401 0 11.0824 0Z" fill="#F3F6FD"/>
</svg>
