<svg width="15" height="21" viewBox="0 0 15 21" fill="none" xmlns="http://www.w3.org/2000/svg">
<path d="M7.5 0C3.35357 0 0 3.31568 0 7.41525C0 11.8326 4.73571 17.9237 6.68571 20.2436C7.11429 20.7521 7.89643 20.7521 8.325 20.2436C10.2643 17.9237 15 11.8326 15 7.41525C15 3.31568 11.6464 0 7.5 0ZM7.5 10.0636C6.02143 10.0636 4.82143 8.87712 4.82143 7.41525C4.82143 5.95339 6.02143 4.76695 7.5 4.76695C8.97857 4.76695 10.1786 5.95339 10.1786 7.41525C10.1786 8.87712 8.97857 10.0636 7.5 10.0636Z" fill="#F3F6FD"/>
</svg>
