<svg width="25" height="21" viewBox="0 0 25 21" fill="none" xmlns="http://www.w3.org/2000/svg">
<path d="M24.8748 2.39134C23.9601 2.79545 22.9774 3.0685 21.9443 3.19191C23.0103 2.55604 23.8077 1.55525 24.188 0.376276C23.1865 0.969317 22.0904 1.38675 20.9474 1.61044C20.1788 0.792248 19.1607 0.249939 18.0512 0.0677067C16.9417 -0.114526 15.803 0.0735144 14.8117 0.602632C13.8204 1.13175 13.032 1.97234 12.5691 2.9939C12.1061 4.01546 11.9943 5.16084 12.2512 6.25219C10.2219 6.15062 8.23679 5.62479 6.42458 4.70884C4.61237 3.79289 3.0136 2.50729 1.73201 0.935471C1.29381 1.68907 1.04184 2.56282 1.04184 3.49335C1.04135 4.33105 1.24827 5.15591 1.64424 5.89476C2.04021 6.63361 2.61299 7.26359 3.31175 7.72882C2.50137 7.70311 1.70887 7.48481 1.00021 7.09208V7.15761C1.00013 8.33251 1.40778 9.47126 2.15399 10.3806C2.9002 11.29 3.93901 11.914 5.09416 12.1467C4.3424 12.3495 3.55423 12.3794 2.78919 12.2341C3.1151 13.245 3.74995 14.129 4.60487 14.7624C5.45978 15.3957 6.49195 15.7467 7.55689 15.7662C5.7491 17.181 3.51649 17.9484 1.21822 17.9451C0.811101 17.9452 0.40433 17.9215 0 17.8741C2.33288 19.3694 5.04852 20.1631 7.822 20.16C17.2106 20.16 22.3431 12.4077 22.3431 5.68426C22.3431 5.46583 22.3376 5.24521 22.3278 5.02677C23.3261 4.307 24.1879 3.41569 24.8726 2.39462L24.8748 2.39134Z" fill="#F3F6FD"/>
</svg>
