<svg width="15" height="13" viewBox="0 0 15 13" fill="none" xmlns="http://www.w3.org/2000/svg">
<path d="M15 1.44203C14.4484 1.68571 13.8558 1.85036 13.2328 1.92478C13.8756 1.54134 14.3565 0.937842 14.5858 0.226901C13.9819 0.584516 13.3209 0.836239 12.6317 0.971124C12.1682 0.477741 11.5543 0.150718 10.8852 0.0408285C10.2162 -0.0690611 9.52948 0.0443306 8.93172 0.363399C8.33395 0.682467 7.85857 1.18936 7.57938 1.80538C7.30018 2.4214 7.2328 3.11208 7.38769 3.77019C6.16402 3.70894 4.96694 3.39186 3.87415 2.83952C2.78135 2.28719 1.81726 1.51194 1.04444 0.564107C0.78019 1.01854 0.628248 1.54543 0.628248 2.10656C0.627953 2.6117 0.75273 3.10911 0.991508 3.55465C1.23029 4.00019 1.57568 4.38008 1.99705 4.66062C1.50837 4.64512 1.03048 4.51348 0.603145 4.27666V4.31617C0.603095 5.02466 0.848916 5.71135 1.2989 6.25971C1.74888 6.80808 2.3753 7.18435 3.07188 7.32468C2.61855 7.44699 2.14327 7.46501 1.68193 7.37737C1.87847 7.98698 2.26129 8.52006 2.77682 8.90199C3.29235 9.28391 3.91477 9.49556 4.55695 9.50729C3.46681 10.3605 2.12051 10.8232 0.734608 10.8212C0.489109 10.8213 0.243819 10.807 0 10.7784C1.40677 11.6801 3.04435 12.1587 4.71681 12.1569C10.3783 12.1569 13.4733 7.48209 13.4733 3.42772C13.4733 3.296 13.47 3.16296 13.4641 3.03124C14.0661 2.5972 14.5857 2.05973 14.9987 1.444L15 1.44203Z" fill="#131D2E"/>
</svg>
